<?xml version="1.0" standalone="no"?>
<!DOCTYPE svg PUBLIC "-//W3C//DTD SVG 20010904//EN"
 "http://www.w3.org/TR/2001/REC-SVG-20010904/DTD/svg10.dtd">
<svg version="1.0" xmlns="http://www.w3.org/2000/svg"
 width="512.000000pt" height="512.000000pt" viewBox="0 0 512.000000 512.000000"
 preserveAspectRatio="xMidYMid meet">

<g transform="translate(0.000000,512.000000) scale(0.100000,-0.100000)"
fill="#000000" stroke="none">
<path d="M1577 3879 c-391 -41 -738 -318 -866 -692 l-18 -53 75 -39 c99 -52
204 -156 254 -250 59 -115 70 -161 75 -347 l6 -168 1457 0 1457 0 6 168 c5
186 16 232 75 347 50 94 155 198 254 250 l75 39 -18 53 c-110 320 -380 572
-710 663 -41 11 -117 24 -169 30 -114 12 -1839 11 -1953 -1z"/>
<path d="M340 2981 c-284 -90 -415 -396 -287 -665 73 -153 246 -266 406 -266
l41 0 0 -132 c0 -224 25 -314 113 -406 80 -83 175 -122 300 -122 l67 0 0 -70
c0 -58 3 -71 19 -80 11 -5 85 -10 170 -10 180 0 181 1 181 96 l0 64 1210 0
1210 0 0 -64 c0 -95 1 -96 181 -96 85 0 159 5 170 10 16 9 19 22 19 80 l0 70
68 0 c124 0 219 39 299 122 88 92 113 182 113 406 l0 132 41 0 c211 0 414 181
450 401 47 284 -176 549 -464 549 -169 0 -332 -91 -416 -231 -55 -93 -63 -139
-69 -376 l-4 -223 -1598 0 -1598 0 -4 223 c-6 237 -14 283 -69 376 -58 97
-179 187 -288 216 -78 20 -192 18 -261 -4z"/>
</g>
</svg>
